Coordinates
version=1
nRows=11
nColumns=40
inDegrees=yes

Units are S.I. units (second, meters, Newtons, ...)
If the header above contains a line with 'inDegrees', this indicates whether rotational values are in degrees (yes) or radians (no).

endheader
time	pelvis_tilt	pelvis_list	pelvis_rotation	pelvis_tx	pelvis_ty	pelvis_tz	hip_flexion_r	hip_adduction_r	hip_rotation_r	knee_angle_r	knee_angle_r_beta	ankle_angle_r	subtalar_angle_r	mtp_angle_r	hip_flexion_l	hip_adduction_l	hip_rotation_l	knee_angle_l	knee_angle_l_beta	ankle_angle_l	subtalar_angle_l	mtp_angle_l	lumbar_extension	lumbar_bending	lumbar_rotation	arm_flex_r	arm_add_r	arm_rot_r	elbow_flex_r	pro_sup_r	wrist_flex_r	wrist_dev_r	arm_flex_l	arm_add_l	arm_rot_l	elbow_flex_l	pro_sup_l	wrist_flex_l	wrist_dev_l
      3.15000000	    -33.23040733	      2.93308030	      2.02807193	     -0.37256272	      0.79624160	     -1.12187798	     15.77539947	     -6.72616232	     14.12219292	     74.04397876	      1.29231122	     -6.84058109	      0.00000000	      0.00000000	     81.01170414	      1.92655403	     -9.31392098	     80.93312713	      1.41254954	     20.36696888	      0.00000000	      0.00000000	     -5.64754400	    -12.15427227	      5.99443919	     89.96568515	     -4.80646843	      7.28990324	     52.64599205	     76.36609909	      0.00000000	      0.00000000	     89.96931445	     -1.86725743	     18.75774056	     54.15853119	     56.09998236	      0.00000000	      0.00000000
      3.15500000	    -33.37591102	      2.72219948	      2.06161674	     -0.37274103	      0.79486560	     -1.12170828	     15.93163493	     -6.48214106	     14.08577804	     74.10169542	      1.29331857	     -6.89799034	      0.00000000	      0.00000000	     81.34220218	      1.88863964	     -9.07628728	     81.20154971	      1.41723440	     20.45189980	      0.00000000	      0.00000000	     -5.52429292	    -11.94128558	      6.00986757	     89.96578163	     -4.84520116	      7.57625156	     52.80361013	     73.09470400	      0.00000000	      0.00000000	     89.96935763	     -1.82362667	     18.73076777	     54.18521576	     54.46601958	      0.00000000	      0.00000000
      3.16000000	    -33.47342494	      2.56151188	      2.24163205	     -0.37314615	      0.79410693	     -1.12191627	     16.04318549	     -6.35388563	     13.91009781	     74.12195047	      1.29367208	     -6.92035890	      0.00000000	      0.00000000	     81.59799370	      2.04423056	     -8.85828812	     81.29880362	      1.41893180	     20.70116508	      0.00000000	      0.00000000	     -5.51289596	    -11.78043297	      5.80492787	     89.96588884	     -4.77019665	      6.77335459	     52.68638345	     79.61842921	      0.00000000	      0.00000000	     89.96946309	     -1.78812892	     18.54179806	     54.05011273	     55.07482258	      0.00000000	      0.00000000
      3.16500000	    -33.35150333	      2.81993774	      2.09083395	     -0.37260878	      0.79317626	     -1.12162849	     15.90841360	     -6.59063012	     14.12387027	     74.14694153	      1.29410826	     -6.97153599	      0.00000000	      0.00000000	     81.47650504	      1.96539363	     -9.13662248	     81.51514278	      1.42270763	     20.56518308	      0.00000000	      0.00000000	     -5.63473533	    -12.09872454	      5.93895846	     89.96588513	     -4.82133627	      7.12602059	     52.75328817	     75.91283542	      0.00000000	      0.00000000	     89.96949126	     -1.74947647	     18.51201335	     54.03752184	     53.68569013	      0.00000000	      0.00000000
      3.17000000	    -33.48773476	      2.59543340	      2.13425150	     -0.37294335	      0.79197790	     -1.12150443	     16.07965859	     -6.31889101	     14.08756069	     74.23614968	      1.29566524	     -7.01226226	      0.00000000	      0.00000000	     81.78374755	      1.94475192	     -8.88915098	     81.71800193	      1.42624819	     20.57823621	      0.00000000	      0.00000000	     -5.52101687	    -11.86192373	      5.91495209	     89.96595300	     -4.80790394	      7.40067091	     52.86322612	     72.72592102	      0.00000000	      0.00000000	     89.96958475	     -1.71985595	     18.45806414	     54.02129587	     52.28983067	      0.00000000	      0.00000000
      3.17500000	    -33.41340125	      2.68263285	      2.16691036	     -0.37276763	      0.79112056	     -1.12145982	     16.00074540	     -6.44008667	     14.06758784	     74.25664588	      1.29602296	     -7.05992325	      0.00000000	      0.00000000	     81.77207972	      2.00383863	     -8.97151227	     81.88222637	      1.42911445	     20.74033884	      0.00000000	      0.00000000	     -5.66222568	    -11.96304356	      5.80447293	     89.96595844	     -4.68068719	      7.49376523	     52.99388108	     69.88215677	      0.00000000	      0.00000000	     89.96968269	     -1.77299110	     18.36227071	     54.04264447	     51.14572392	      0.00000000	      0.00000000
      3.18000000	    -33.38495238	      2.72143750	      2.22708195	     -0.37270376	      0.79040555	     -1.12153087	     15.97214495	     -6.45215444	     14.09290422	     74.29938569	      1.29676891	     -6.89643608	      0.00000000	      0.00000000	     81.86435204	      2.14362076	     -8.90466059	     82.01604416	      1.43145001	     20.82139037	      0.00000000	      0.00000000	     -5.76441470	    -12.00045162	      5.71843738	     89.96611819	     -4.63338730	      7.52013849	     53.01702583	     68.42844011	      0.00000000	      0.00000000	     89.96970779	     -1.71695301	     18.16693543	     53.96595841	     50.67456987	      0.00000000	      0.00000000
      3.18500000	    -33.38628932	      2.59897421	      2.26828781	     -0.37266336	      0.78940279	     -1.12135081	     15.94092093	     -6.30287982	     14.03028396	     74.27580343	      1.29635732	     -6.58462138	      0.00000000	      0.00000000	     81.97139644	      2.13293897	     -8.78889105	     82.22623382	      1.43511851	     20.42913013	      0.00000000	      0.00000000	     -5.77408908	    -11.89269793	      5.62182550	     89.96631456	     -4.55999725	      7.76965375	     53.01909051	     65.47678159	      0.00000000	      0.00000000	     89.96981172	     -1.73597850	     18.00954272	     53.78717007	     49.68672830	      0.00000000	      0.00000000
      3.19000000	    -33.53577220	      2.53869380	      2.27683986	     -0.37284743	      0.78813106	     -1.12117509	     16.20632834	     -6.24040543	     13.99477652	     74.45298366	      1.29944970	     -7.14175821	      0.00000000	      0.00000000	     82.22883150	      2.09134836	     -8.79502599	     82.42162697	      1.43852877	     20.85417591	      0.00000000	      0.00000000	     -5.64423908	    -11.87003176	      5.66321187	     89.96623677	     -4.58973235	      6.32988422	     52.73475313	     79.27024767	      0.00000000	      0.00000000	     89.96988789	     -1.72019989	     18.07109914	     53.82910194	     49.13923336	      0.00000000	      0.00000000
      3.19500000	    -33.51006728	      2.60490888	      2.31891070	     -0.37278900	      0.78737724	     -1.12118498	     16.19764341	     -6.31654158	     13.98833440	     74.47410798	      1.29981839	     -7.22314900	      0.00000000	      0.00000000	     82.25966939	      2.18824239	     -8.82367254	     82.52400208	      1.44031555	     21.00543030	      0.00000000	      0.00000000	     -5.75988043	    -11.94217890	      5.57810121	     89.96627732	     -4.56971254	      6.61261977	     52.91787481	     75.78971346	      0.00000000	      0.00000000	     89.96994110	     -1.73678721	     17.93963619	     53.86439247	     48.46243418	      0.00000000	      0.00000000
      3.20000000	    -33.49441152	      2.65861631	      2.39530073	     -0.37278448	      0.78659352	     -1.12122496	     16.22724598	     -6.37880227	     13.94449050	     74.55370325	      1.30120759	     -7.24048127	      0.00000000	      0.00000000	     82.31186560	      2.29680778	     -8.84833760	     82.63776582	      1.44230110	     21.14061711	      0.00000000	      0.00000000	     -5.84345335	    -11.99006542	      5.43826579	     89.96633600	     -4.46215302	      6.83396891	     53.02047252	     72.38269056	      0.00000000	      0.00000000	     89.97001364	     -1.82443659	     17.89569084	     53.87197744	     47.81446752	      0.00000000	      0.00000000
